<svg width="25" height="24" viewBox="0 0 25 24" fill="none" xmlns="http://www.w3.org/2000/svg">
    <rect x="0.25" width="24" height="24" rx="12" fill="#FFF4CC"/>
    <path d="M8.91683 11.1673H7.5835C5.97016 11.1673 5.0835 10.2807 5.0835 8.66732V7.33398C5.0835 5.72065 5.97016 4.83398 7.5835 4.83398H8.91683C10.5302 4.83398 11.4168 5.72065 11.4168 7.33398V8.66732C11.4168 10.2807 10.5302 11.1673 8.91683 11.1673ZM7.5835 5.83398C6.53016 5.83398 6.0835 6.28065 6.0835 7.33398V8.66732C6.0835 9.72065 6.53016 10.1673 7.5835 10.1673H8.91683C9.97016 10.1673 10.4168 9.72065 10.4168 8.66732V7.33398C10.4168 6.28065 9.97016 5.83398 8.91683 5.83398H7.5835Z" fill="#FFD02B"/>
    <path d="M16.9168 11.1673H15.5835C13.9702 11.1673 13.0835 10.2807 13.0835 8.66732V7.33398C13.0835 5.72065 13.9702 4.83398 15.5835 4.83398H16.9168C18.5302 4.83398 19.4168 5.72065 19.4168 7.33398V8.66732C19.4168 10.2807 18.5302 11.1673 16.9168 11.1673ZM15.5835 5.83398C14.5302 5.83398 14.0835 6.28065 14.0835 7.33398V8.66732C14.0835 9.72065 14.5302 10.1673 15.5835 10.1673H16.9168C17.9702 10.1673 18.4168 9.72065 18.4168 8.66732V7.33398C18.4168 6.28065 17.9702 5.83398 16.9168 5.83398H15.5835Z" fill="#FFD02B"/>
    <path d="M16.9168 19.1673H15.5835C13.9702 19.1673 13.0835 18.2807 13.0835 16.6673V15.334C13.0835 13.7207 13.9702 12.834 15.5835 12.834H16.9168C18.5302 12.834 19.4168 13.7207 19.4168 15.334V16.6673C19.4168 18.2807 18.5302 19.1673 16.9168 19.1673ZM15.5835 13.834C14.5302 13.834 14.0835 14.2807 14.0835 15.334V16.6673C14.0835 17.7207 14.5302 18.1673 15.5835 18.1673H16.9168C17.9702 18.1673 18.4168 17.7207 18.4168 16.6673V15.334C18.4168 14.2807 17.9702 13.834 16.9168 13.834H15.5835Z" fill="#FFD02B"/>
    <path d="M8.91683 19.1673H7.5835C5.97016 19.1673 5.0835 18.2807 5.0835 16.6673V15.334C5.0835 13.7207 5.97016 12.834 7.5835 12.834H8.91683C10.5302 12.834 11.4168 13.7207 11.4168 15.334V16.6673C11.4168 18.2807 10.5302 19.1673 8.91683 19.1673ZM7.5835 13.834C6.53016 13.834 6.0835 14.2807 6.0835 15.334V16.6673C6.0835 17.7207 6.53016 18.1673 7.5835 18.1673H8.91683C9.97016 18.1673 10.4168 17.7207 10.4168 16.6673V15.334C10.4168 14.2807 9.97016 13.834 8.91683 13.834H7.5835Z" fill="#FFD02B"/>
</svg>
