<svg width="22" height="22" viewBox="0 0 22 22" fill="none" xmlns="http://www.w3.org/2000/svg">
    <rect width="22" height="22" rx="8" fill="#FFF4CC"/>
    <path opacity="0.4" d="M12.1665 6.91675V9.83341H11.5832C10.6207 9.83341 9.83317 10.6209 9.83317 11.5834V12.1667H6.9165C5.94817 12.1667 5.1665 11.3851 5.1665 10.4167V6.91675C5.1665 5.94841 5.94817 5.16675 6.9165 5.16675H10.4165C11.3848 5.16675 12.1665 5.94841 12.1665 6.91675Z" fill="#FFD02B"/>
    <path d="M7.03321 7.8677C6.89905 7.8677 6.75905 7.80353 6.67738 7.68103C6.53738 7.4827 6.58405 7.20854 6.78238 7.06854C7.23738 6.74771 7.84988 6.74186 8.31071 7.05686C8.50905 7.19103 8.56155 7.46522 8.42738 7.66355C8.29321 7.86189 8.01905 7.91436 7.82071 7.78019C7.66321 7.67519 7.45321 7.6752 7.29571 7.78603C7.20821 7.84436 7.12071 7.8677 7.03321 7.8677Z" fill="#FFCF2A"/>
    <path d="M9.36671 7.8677C9.23254 7.8677 9.09254 7.80353 9.01088 7.68103C8.87088 7.4827 8.91754 7.20854 9.11588 7.06854C9.57088 6.74771 10.1834 6.74186 10.6442 7.05686C10.8425 7.19103 10.895 7.46522 10.7609 7.66355C10.6267 7.86189 10.3525 7.91436 10.1542 7.78019C9.99671 7.67519 9.78671 7.6752 9.62921 7.78603C9.54171 7.84436 9.45421 7.8677 9.36671 7.8677Z" fill="#FFCF2A"/>
    <path d="M8.75964 11.099H7.40631C6.99214 11.099 6.65381 10.7607 6.65381 10.3465C6.65381 9.23816 7.55798 8.33398 8.66631 8.33398C9.12131 8.33398 9.57048 8.49149 9.92631 8.77732C10.113 8.92899 10.148 9.20315 9.99631 9.38982C9.84464 9.57648 9.57048 9.61148 9.38381 9.45981C9.17964 9.29648 8.93464 9.20898 8.67214 9.20898C8.08881 9.20898 7.60464 9.65231 7.54048 10.224H8.76547C9.00464 10.224 9.20297 10.4223 9.20297 10.6615C9.20297 10.9006 8.99881 11.099 8.75964 11.099Z" fill="#FFCF2A"/>
    <path d="M14.6279 13.7302C14.5871 13.6835 14.5288 13.6602 14.4646 13.6602H12.2013C12.1371 13.6602 12.0788 13.6835 12.0379 13.7302C11.9971 13.7768 11.9738 13.841 11.9854 13.8993C12.0613 14.5876 12.6388 15.1127 13.3329 15.1127C14.0271 15.1127 14.6046 14.5935 14.6804 13.8993C14.6863 13.8351 14.6688 13.7768 14.6279 13.7302Z" fill="#FFCF2A"/>
    <path d="M15.0835 9.83325H11.5835C10.621 9.83325 9.8335 10.6208 9.8335 11.5833V15.0833C9.8335 16.0458 10.621 16.8333 11.5835 16.8333H15.0835C16.046 16.8333 16.8335 16.0458 16.8335 15.0833V11.5833C16.8335 10.6208 16.046 9.83325 15.0835 9.83325ZM11.3443 11.6824C11.4843 11.4841 11.7585 11.4374 11.9568 11.5774C12.1143 11.6882 12.3243 11.6883 12.4818 11.5833C12.6802 11.4433 12.9543 11.4958 13.0885 11.6999C13.2227 11.8983 13.176 12.1724 12.9718 12.3066C12.7443 12.4582 12.4818 12.5399 12.2193 12.5399C11.9452 12.5399 11.6768 12.4582 11.4493 12.2949C11.251 12.1491 11.2043 11.8749 11.3443 11.6824ZM13.3335 15.7657C12.2252 15.7657 11.321 14.8616 11.321 13.7532C11.321 13.3391 11.6593 13.0007 12.0735 13.0007H14.5935C15.0077 13.0007 15.346 13.3391 15.346 13.7532C15.346 14.8616 14.4418 15.7657 13.3335 15.7657ZM15.3052 12.3007C15.0777 12.4524 14.8152 12.5341 14.5527 12.5341C14.2785 12.5341 14.0102 12.4524 13.7827 12.2891C13.5843 12.1491 13.5377 11.8749 13.6777 11.6766C13.8177 11.4782 14.0918 11.4316 14.2902 11.5716C14.4477 11.6824 14.6577 11.6824 14.8152 11.5774C15.0135 11.4374 15.2877 11.4899 15.4218 11.6941C15.556 11.8983 15.5035 12.1666 15.3052 12.3007Z" fill="#FFCF2A"/>
</svg>
