<svg width="21" height="21" viewBox="0 0 21 21" fill="none" xmlns="http://www.w3.org/2000/svg">
    <path d="M12.7918 16.3333C12.7918 17.6 11.7668 18.625 10.5002 18.625C9.2335 18.625 8.2085 17.6 8.2085 16.3333C8.2085 15.0667 9.2335 14.0417 10.5002 14.0417C11.7668 14.0417 12.7918 15.0667 12.7918 16.3333ZM9.4585 16.3333C9.4585 16.9083 9.92516 17.375 10.5002 17.375C11.0752 17.375 11.5418 16.9083 11.5418 16.3333C11.5418 15.7583 11.0752 15.2917 10.5002 15.2917C9.92516 15.2917 9.4585 15.7583 9.4585 16.3333Z" fill="#555555"/>
    <path d="M12.7918 4.66732C12.7918 5.93398 11.7668 6.95898 10.5002 6.95898C9.2335 6.95898 8.2085 5.93398 8.2085 4.66732C8.2085 3.40065 9.2335 2.37565 10.5002 2.37565C11.7668 2.37565 12.7918 3.40065 12.7918 4.66732ZM9.4585 4.66732C9.4585 5.24232 9.92516 5.70898 10.5002 5.70898C11.0752 5.70898 11.5418 5.24232 11.5418 4.66732C11.5418 4.09232 11.0752 3.62565 10.5002 3.62565C9.92516 3.62565 9.4585 4.09232 9.4585 4.66732Z" fill="#555555"/>
    <path d="M12.7918 10.4993C12.7918 11.766 11.7668 12.791 10.5002 12.791C9.2335 12.791 8.2085 11.766 8.2085 10.4993C8.2085 9.23268 9.2335 8.20768 10.5002 8.20768C11.7668 8.20768 12.7918 9.23268 12.7918 10.4993ZM9.4585 10.4993C9.4585 11.0743 9.92516 11.541 10.5002 11.541C11.0752 11.541 11.5418 11.0743 11.5418 10.4993C11.5418 9.92435 11.0752 9.45768 10.5002 9.45768C9.92516 9.45768 9.4585 9.92435 9.4585 10.4993Z" fill="#555555"/>
</svg>
