<svg width="15" height="14" viewBox="0 0 15 14" fill="none" xmlns="http://www.w3.org/2000/svg">
    <path d="M13.5657 10.6918C13.5657 10.9018 13.519 11.1177 13.4198 11.3277C13.3207 11.5377 13.1923 11.736 13.0232 11.9227C12.7373 12.2377 12.4223 12.4652 12.0665 12.611C11.7165 12.7569 11.3373 12.8327 10.929 12.8327C10.334 12.8327 9.69817 12.6927 9.02734 12.4068C8.3565 12.121 7.68567 11.736 7.02067 11.2519C6.34984 10.7619 5.714 10.2193 5.10734 9.61852C4.5065 9.01185 3.964 8.37602 3.47984 7.71102C3.0015 7.04602 2.6165 6.38102 2.3365 5.72185C2.0565 5.05685 1.9165 4.42102 1.9165 3.81435C1.9165 3.41768 1.9865 3.03852 2.1265 2.68852C2.2665 2.33268 2.48817 2.00602 2.79734 1.71435C3.17067 1.34685 3.579 1.16602 4.01067 1.16602C4.174 1.16602 4.33734 1.20102 4.48317 1.27102C4.63484 1.34102 4.769 1.44602 4.874 1.59768L6.22734 3.50518C6.33234 3.65102 6.40817 3.78518 6.46067 3.91352C6.51317 4.03602 6.54234 4.15852 6.54234 4.26935C6.54234 4.40935 6.5015 4.54935 6.41984 4.68352C6.344 4.81768 6.23317 4.95768 6.09317 5.09768L5.64984 5.55852C5.58567 5.62268 5.5565 5.69852 5.5565 5.79185C5.5565 5.83852 5.56234 5.87935 5.574 5.92602C5.5915 5.97268 5.609 6.00768 5.62067 6.04268C5.72567 6.23518 5.9065 6.48602 6.16317 6.78935C6.42567 7.09268 6.70567 7.40185 7.009 7.71102C7.324 8.02018 7.62734 8.30602 7.9365 8.56852C8.23984 8.82518 8.49067 9.00018 8.689 9.10518C8.71817 9.11685 8.75317 9.13435 8.794 9.15185C8.84067 9.16935 8.88734 9.17518 8.93984 9.17518C9.039 9.17518 9.11484 9.14018 9.179 9.07602L9.62234 8.63852C9.76817 8.49268 9.90817 8.38185 10.0423 8.31185C10.1765 8.23018 10.3107 8.18935 10.4565 8.18935C10.5673 8.18935 10.684 8.21268 10.8123 8.26518C10.9407 8.31768 11.0748 8.39352 11.2207 8.49268L13.1515 9.86352C13.3032 9.96852 13.4082 10.091 13.4723 10.2368C13.5307 10.3827 13.5657 10.5285 13.5657 10.6918Z" stroke="#808080" stroke-width="1.05" stroke-miterlimit="10"/>
</svg>
