<svg width="16" height="16" viewBox="0 0 16 16" fill="none" xmlns="http://www.w3.org/2000/svg">
    <path d="M8.00675 15.16C7.58675 15.16 7.17341 15.02 6.84675 14.74L5.79341 13.84C5.68674 13.7467 5.42008 13.6534 5.28008 13.6534H4.11341C3.12674 13.6534 2.32674 12.8534 2.32674 11.8667V10.7267C2.32674 10.5867 2.23341 10.32 2.14674 10.22L1.24008 9.15338C0.693411 8.50671 0.693411 7.49338 1.24008 6.84005L2.14674 5.77338C2.23341 5.67338 2.32674 5.40671 2.32674 5.26671V4.13338C2.32674 3.14671 3.12674 2.34671 4.11341 2.34671H5.26675C5.40675 2.34671 5.66675 2.24671 5.78008 2.15338L6.83341 1.25338C7.48675 0.700046 8.50674 0.700046 9.16008 1.25338L10.2134 2.15338C10.3201 2.24671 10.5934 2.34005 10.7334 2.34005H11.8667C12.8534 2.34005 13.6534 3.14005 13.6534 4.12671V5.26005C13.6534 5.40005 13.7534 5.66005 13.8467 5.77338L14.7467 6.82671C15.3067 7.48671 15.3001 8.50671 14.7467 9.15338L13.8467 10.2067C13.7534 10.32 13.6601 10.58 13.6601 10.72V11.8534C13.6601 12.84 12.8601 13.64 11.8734 13.64H10.7401C10.6001 13.64 10.3401 13.74 10.2201 13.8334L9.16675 14.7334C8.84008 15.02 8.42008 15.16 8.00675 15.16ZM4.11341 3.34671C3.68008 3.34671 3.32674 3.70005 3.32674 4.13338V5.26671C3.32674 5.64671 3.15341 6.12671 2.90674 6.42005L2.00008 7.48671C1.77341 7.76005 1.77341 8.24005 2.00008 8.50671L2.90008 9.56671C3.14008 9.84005 3.32008 10.34 3.32008 10.72V11.86C3.32008 12.2934 3.67341 12.6467 4.10674 12.6467H5.26675C5.64008 12.6467 6.13341 12.8267 6.42675 13.0734L7.48674 13.98C7.76008 14.2134 8.24008 14.2134 8.51341 13.98L9.56675 13.08C9.86675 12.8267 10.3534 12.6534 10.7267 12.6534H11.8601C12.2934 12.6534 12.6467 12.3 12.6467 11.8667V10.7334C12.6467 10.36 12.8267 9.87338 13.0734 9.57338L13.9801 8.51338C14.2134 8.24005 14.2134 7.76005 13.9801 7.48671L13.0801 6.43338C12.8267 6.13338 12.6534 5.64671 12.6534 5.27338V4.13338C12.6534 3.70005 12.3001 3.34671 11.8667 3.34671H10.7334C10.3534 3.34671 9.86008 3.16671 9.56675 2.92005L8.50675 2.01338C8.23341 1.78005 7.76008 1.78005 7.48008 2.01338L6.43341 2.92005C6.13341 3.16671 5.64675 3.34671 5.26675 3.34671H4.11341Z" fill="#FFC600"/>
    <path d="M7.99967 11.2469C7.63301 11.2469 7.33301 10.9469 7.33301 10.5802C7.33301 10.2136 7.62634 9.91357 7.99967 9.91357C8.36634 9.91357 8.66634 10.2136 8.66634 10.5802C8.66634 10.9469 8.37301 11.2469 7.99967 11.2469Z" fill="#FFC600"/>
    <path d="M8 9.14659C7.72667 9.14659 7.5 8.91992 7.5 8.64659V5.41992C7.5 5.14659 7.72667 4.91992 8 4.91992C8.27333 4.91992 8.5 5.14659 8.5 5.41992V8.63992C8.5 8.91992 8.28 9.14659 8 9.14659Z" fill="#FFC600"/>
</svg>
