<svg width="24" height="24" viewBox="0 0 24 24" fill="none" xmlns="http://www.w3.org/2000/svg">
    <rect width="24" height="24" rx="12" fill="#D9EEDF"/>
    <path d="M19.4392 6.08661C19.2397 5.97958 18.8213 5.86768 18.2521 6.26661L17.5369 6.77258C17.4834 5.25955 16.8266 4.66602 15.2309 4.66602H12.3119C10.648 4.66602 10.001 5.31307 10.001 6.97691V10.8689C10.001 11.9879 10.6091 13.1798 12.3119 13.1798H15.2309C16.8266 13.1798 17.4834 12.5863 17.5369 11.0733L18.2521 11.5792C18.5537 11.7933 18.8164 11.8614 19.0256 11.8614C19.2056 11.8614 19.3467 11.8079 19.4392 11.7592C19.6386 11.6571 19.9743 11.3798 19.9743 10.6841V7.16178C19.9743 6.46608 19.6386 6.18877 19.4392 6.08661ZM14.5011 8.62129C14 8.62129 13.5865 8.21263 13.5865 7.70667C13.5865 7.2007 14 6.79204 14.5011 6.79204C15.0022 6.79204 15.4158 7.2007 15.4158 7.70667C15.4158 8.21263 15.0022 8.62129 14.5011 8.62129Z" fill="#FFECAA"/>
    <path d="M14.6191 16.1377L14.6188 16.1376L14.6158 16.1499C14.3576 17.1755 13.5169 17.8304 12.2939 17.8304H10.0803H9.97449L9.88639 17.889L7.42861 19.5248L7.42859 19.5248L7.42398 19.5279C7.29892 19.6141 7.11801 19.5289 7.11801 19.3604V18.1804V17.8304H6.76801C6.017 17.8304 5.41889 17.5814 5.01347 17.176C4.59937 16.7619 4.35098 16.1635 4.35098 15.4133V12.101C4.35098 11.4016 4.56708 10.835 4.92757 10.4305C5.28708 10.0272 5.81114 9.76136 6.47225 9.69901C6.57834 9.69085 6.67041 9.68398 6.76801 9.68398H12.2939C13.0445 9.68398 13.6428 9.93265 14.0526 10.3424C14.4623 10.7522 14.711 11.3504 14.711 12.101V15.4133C14.711 15.6813 14.6811 15.924 14.6191 16.1377Z" fill="#43A95D" stroke="#43A95D" stroke-width="0.7"/>
    <rect x="6.39941" y="13.4004" width="1.5" height="1.5" rx="0.75" fill="white"/>
    <rect x="8.89941" y="13.4004" width="1.5" height="1.5" rx="0.75" fill="white"/>
    <rect x="11.3994" y="13.4004" width="1.5" height="1.5" rx="0.75" fill="white"/>
</svg>
