<svg width="24" height="24" viewBox="0 0 24 24" fill="none" xmlns="http://www.w3.org/2000/svg">
<rect width="24" height="24" rx="12" fill="#D9EEDF"/>
<path d="M16 8.77338C15.96 8.76671 15.9133 8.76671 15.8733 8.77338C14.9533 8.74004 14.22 7.98671 14.22 7.05338C14.22 6.10004 14.9866 5.33337 15.94 5.33337C16.8933 5.33337 17.66 6.10671 17.66 7.05338C17.6533 7.98671 16.92 8.74004 16 8.77338Z" stroke="#62B778" stroke-width="1.05" stroke-linecap="round" stroke-linejoin="round"/>
<path d="M15.3133 13.6267C16.2267 13.78 17.2333 13.62 17.94 13.1467C18.88 12.52 18.88 11.4934 17.94 10.8667C17.2267 10.3934 16.2067 10.2334 15.2933 10.3934" stroke="#62B778" stroke-width="1.05" stroke-linecap="round" stroke-linejoin="round"/>
<path d="M7.97995 8.77338C8.01995 8.76671 8.06661 8.76671 8.10661 8.77338C9.02661 8.74004 9.75995 7.98671 9.75995 7.05338C9.75995 6.10004 8.99328 5.33337 8.03995 5.33337C7.08661 5.33337 6.31995 6.10671 6.31995 7.05338C6.32661 7.98671 7.05995 8.74004 7.97995 8.77338Z" stroke="#62B778" stroke-width="1.05" stroke-linecap="round" stroke-linejoin="round"/>
<path d="M8.66663 13.6267C7.75329 13.78 6.74663 13.62 6.03996 13.1467C5.09996 12.52 5.09996 11.4934 6.03996 10.8667C6.75329 10.3934 7.77329 10.2334 8.68663 10.3934" stroke="#62B778" stroke-width="1.05" stroke-linecap="round" stroke-linejoin="round"/>
<path d="M12 13.7534C11.96 13.7467 11.9133 13.7467 11.8733 13.7534C10.9533 13.72 10.22 12.9667 10.22 12.0334C10.22 11.08 10.9866 10.3134 11.94 10.3134C12.8933 10.3134 13.66 11.0867 13.66 12.0334C13.6533 12.9667 12.92 13.7267 12 13.7534Z" stroke="#62B778" stroke-width="1.05" stroke-linecap="round" stroke-linejoin="round"/>
<path d="M10.06 15.8534C9.11998 16.48 9.11998 17.5067 10.06 18.1334C11.1266 18.8467 12.8733 18.8467 13.94 18.1334C14.88 17.5067 14.88 16.48 13.94 15.8534C12.88 15.1467 11.1266 15.1467 10.06 15.8534Z" stroke="#62B778" stroke-width="1.05" stroke-linecap="round" stroke-linejoin="round"/>
</svg>
