<svg width="16" height="17" viewBox="0 0 16 17" fill="none" xmlns="http://www.w3.org/2000/svg">
    <path d="M14.6663 8.49967C14.6663 4.81967 11.6797 1.83301 7.99967 1.83301C4.31967 1.83301 1.33301 4.81967 1.33301 8.49967C1.33301 12.1797 4.31967 15.1663 7.99967 15.1663" stroke="#555555" stroke-width="1.08001" stroke-linecap="round" stroke-linejoin="round"/>
    <path d="M5.33275 2.49902H5.99941C4.69941 6.39236 4.69941 10.6057 5.99941 14.499H5.33275" stroke="#555555" stroke-width="1.08001" stroke-linecap="round" stroke-linejoin="round"/>
    <path d="M10 2.49902C10.6467 4.44569 10.9733 6.47236 10.9733 8.49902" stroke="#555555" stroke-width="1.08001" stroke-linecap="round" stroke-linejoin="round"/>
    <path d="M1.99902 11.1667V10.5C3.94569 11.1467 5.97236 11.4733 7.99902 11.4733" stroke="#555555" stroke-width="1.08001" stroke-linecap="round" stroke-linejoin="round"/>
    <path d="M1.99902 6.49941C5.89236 5.19941 10.1057 5.19941 13.999 6.49941" stroke="#555555" stroke-width="1.08001" stroke-linecap="round" stroke-linejoin="round"/>
    <path d="M11.665 12.916C12.0793 12.916 12.415 12.5802 12.415 12.166C12.415 11.7518 12.0793 11.416 11.665 11.416C11.2508 11.416 10.915 11.7518 10.915 12.166C10.915 12.5802 11.2508 12.916 11.665 12.916Z" stroke="#555555" stroke-width="0.7" stroke-miterlimit="10" stroke-linecap="round" stroke-linejoin="round"/>
    <path d="M9.16504 12.3864V11.9464C9.16504 11.6864 9.37754 11.4714 9.64004 11.4714C10.0925 11.4714 10.2775 11.1514 10.05 10.7589C9.92004 10.5339 9.99754 10.2414 10.225 10.1114L10.6575 9.86387C10.855 9.74637 11.11 9.81637 11.2275 10.0139L11.255 10.0614C11.48 10.4539 11.85 10.4539 12.0775 10.0614L12.105 10.0139C12.2225 9.81637 12.4775 9.74637 12.675 9.86387L13.1075 10.1114C13.335 10.2414 13.4125 10.5339 13.2825 10.7589C13.055 11.1514 13.24 11.4714 13.6925 11.4714C13.9525 11.4714 14.1675 11.6839 14.1675 11.9464V12.3864C14.1675 12.6464 13.955 12.8614 13.6925 12.8614C13.24 12.8614 13.055 13.1814 13.2825 13.5739C13.4125 13.8014 13.335 14.0914 13.1075 14.2214L12.675 14.4689C12.4775 14.5864 12.2225 14.5164 12.105 14.3189L12.0775 14.2714C11.8525 13.8789 11.4825 13.8789 11.255 14.2714L11.2275 14.3189C11.11 14.5164 10.855 14.5864 10.6575 14.4689L10.225 14.2214C9.99754 14.0914 9.92004 13.7989 10.05 13.5739C10.2775 13.1814 10.0925 12.8614 9.64004 12.8614C9.37754 12.8614 9.16504 12.6464 9.16504 12.3864Z" stroke="#555555" stroke-width="0.7" stroke-miterlimit="10" stroke-linecap="round" stroke-linejoin="round"/>
</svg>
