<svg width="15" height="15" viewBox="0 0 15 15" fill="none" xmlns="http://www.w3.org/2000/svg">
    <path d="M10.6665 12.8952H4.83317C2.704 12.8952 1.479 11.6702 1.479 9.54102V5.45768C1.479 3.32852 2.704 2.10352 4.83317 2.10352H10.6665C12.7957 2.10352 14.0207 3.32852 14.0207 5.45768V9.54102C14.0207 11.6702 12.7957 12.8952 10.6665 12.8952ZM4.83317 2.97852C3.16484 2.97852 2.354 3.78935 2.354 5.45768V9.54102C2.354 11.2093 3.16484 12.0202 4.83317 12.0202H10.6665C12.3348 12.0202 13.1457 11.2093 13.1457 9.54102V5.45768C13.1457 3.78935 12.3348 2.97852 10.6665 2.97852H4.83317Z" fill="#808080"/>
    <path d="M7.74979 8.00894C7.25979 8.00894 6.76396 7.85728 6.38479 7.54811L4.55896 6.08978C4.37229 5.93811 4.33729 5.66395 4.48896 5.47728C4.64062 5.29061 4.91479 5.25562 5.10146 5.40728L6.92729 6.86562C7.37062 7.22145 8.12312 7.22145 8.56645 6.86562L10.3923 5.40728C10.579 5.25562 10.859 5.28478 11.0048 5.47728C11.1565 5.66395 11.1273 5.94395 10.9348 6.08978L9.10896 7.54811C8.73562 7.85728 8.23979 8.00894 7.74979 8.00894Z" fill="#808080"/>
</svg>
